<svg width="22.000000" height="22.000000" viewBox="0 0 22 22" fill="none" xmlns="http://www.w3.org/2000/svg" xmlns:xlink="http://www.w3.org/1999/xlink">
	<desc>
			Created with Pixso.
	</desc>
	<defs>
		<clipPath id="clip1_8">
			<rect id="Check" width="22.000000" height="22.000000" fill="white" fill-opacity="0"/>
		</clipPath>
	</defs>
	<rect id="Check" width="22.000000" height="22.000000" fill="#FFFFFF" fill-opacity="0"/>
	<g clip-path="url(#clip1_8)">
		<path id="Vector" d="M19.73 6.67L8.73 17.67C8.67 17.73 8.59 17.78 8.51 17.82C8.42 17.85 8.34 17.87 8.25 17.87C8.15 17.87 8.07 17.85 7.98 17.82C7.9 17.78 7.82 17.73 7.76 17.67L2.95 12.86C2.82 12.73 2.74 12.55 2.74 12.37C2.74 12.19 2.82 12.01 2.95 11.88C3.08 11.75 3.25 11.68 3.43 11.68C3.61 11.68 3.79 11.75 3.92 11.88L8.25 16.21L18.76 5.7C18.89 5.57 19.06 5.49 19.25 5.49C19.43 5.49 19.6 5.57 19.73 5.7C19.86 5.83 19.93 6 19.93 6.18C19.93 6.36 19.86 6.54 19.73 6.67Z" fill="#9E78CF" fill-opacity="1.000000" fill-rule="nonzero"/>
	</g>
</svg>
